<?xml version="1.0" encoding="UTF-8"?>
<svg viewBox="0 0 350 400" xmlns="http://www.w3.org/2000/svg">
 <defs>
  <filter id="c">
   <feGaussianBlur stdDeviation="3.47824"/>
  </filter>
  <filter id="b">
   <feGaussianBlur stdDeviation=".55851"/>
  </filter>
  <filter id="a"/>
 </defs>
 <path transform="translate(-413.06 -312.28)" d="m422.97 331.66h330.18v365.47s-82.545-7.1784-165.09-7.1784-165.09 7.1784-165.09 7.1784v-365.47z" filter="url(#c)"/>
 <path transform="translate(-413.06 -312.28)" d="m422.97 327.43h330.18v362.18h-330.18z" fill="#f2f2f2"/>
 <path transform="translate(-413.06 -312.28)" d="m434.8 337.58h306.51v308.62h-306.51z" fill="#ccc" opacity=".55556"/>
 <path transform="translate(-413.06 -312.28)" d="m437.89 340.52h300.34v300.34h-300.34z" stroke="#000" stroke-linejoin="round" stroke-width=".78245"/>
 <path transform="translate(-413.06 -312.28)" d="m437.5 340.13h300.34s-47.344 61.399-122.43 102.97-177.91 63.325-177.91 63.325v-166.3z" fill="#fff" opacity=".19907"/>
 <g transform="translate(.32982 9.4151)">
  <path transform="matrix(1 0 0 1.2873 23.219 23.992)" d="m159.37-13.14a7.9156 7.9156 0 1 1 -15.831 0 7.9156 7.9156 0 1 1 15.831 0z" filter="url(#b)" opacity=".87047"/>
  <path transform="translate(23.219 17.942)" d="m159.37-13.14a7.9156 7.9156 0 1 1 -15.831 0 7.9156 7.9156 0 1 1 15.831 0z" fill="#f00"/>
  <path d="m179.17-1.6117c-3.4659-2.474-8.2917-1.6464-10.766 1.8195-0.73659 1.0319-1.1692 2.1717-1.3408 3.3461 0.23528-0.95451 0.66304-1.8724 1.2702-2.7229 2.5387-3.5564 7.4416-4.4169 10.946-1.9151 1.521 1.0858 2.5425 2.6173 2.9894 4.3042-0.36463-1.8691-1.4282-3.6388-3.0993-4.8317z" fill="#fff" filter="url(#a)" opacity=".62176"/>
  <path d="m179.17 11.224c-3.4659 2.474-8.2917 1.6464-10.766-1.8195-0.73659-1.0319-1.1692-2.1717-1.3408-3.3461 0.23528 0.95451 0.66304 1.8724 1.2702 2.7229 2.5387 3.5564 7.4416 4.4169 10.946 1.9151 1.521-1.0858 2.5425-2.6173 2.9894-4.3042-0.36463 1.8691-1.4282 3.6388-3.0993 4.8317z" filter="url(#a)" opacity=".42487"/>
 </g>
</svg>
